<?xml version="1.0" standalone="no"?>
<!DOCTYPE svg PUBLIC "-//W3C//DTD SVG 20010904//EN"
 "http://www.w3.org/TR/2001/REC-SVG-20010904/DTD/svg10.dtd">
<svg version="1.0" xmlns="http://www.w3.org/2000/svg"
 width="235.000000pt" height="235.000000pt" viewBox="0 0 235.000000 235.000000"
 preserveAspectRatio="xMidYMid meet">
<metadata>
Created by potrace 1.11, written by Peter Selinger 2001-2013
</metadata>
<g transform="translate(0.000000,235.000000) scale(0.100000,-0.100000)"
fill="#000000" stroke="none">
<path d="M2020 2177 c-3 -3 -32 -8 -64 -12 -168 -19 -474 -164 -646 -306 l-25
-20 40 19 c122 59 220 92 325 110 56 9 280 9 340 0 145 -22 282 -107 326 -202
l24 -51 1 95 c2 278 1 293 -28 317 -37 30 -115 50 -208 52 -45 1 -83 0 -85 -2z"/>
<path d="M0 1641 l0 -433 32 -67 c65 -137 258 -293 456 -367 194 -73 432 -89
607 -43 22 6 47 13 55 14 109 23 307 138 417 242 44 42 48 48 18 26 -57 -42
-189 -107 -265 -131 -92 -30 -171 -41 -275 -38 -456 14 -840 421 -1004 1062
-11 44 -23 98 -27 120 -3 21 -8 41 -10 43 -2 2 -4 -190 -4 -428z"/>
<path d="M1669 1886 c-2 -2 -24 -6 -49 -9 -185 -22 -406 -116 -569 -241 -33
-26 -61 -49 -61 -51 0 -2 25 10 55 27 140 76 314 118 492 120 330 3 637 -152
770 -389 l33 -58 1 70 c3 275 -5 311 -86 383 -106 93 -254 142 -451 148 -72 2
-133 2 -135 0z"/>
<path d="M1359 1646 c-2 -2 -20 -6 -39 -9 -81 -13 -108 -20 -185 -48 -106 -38
-217 -102 -315 -181 -96 -77 -111 -101 -28 -46 101 67 250 126 363 143 189 29
410 -26 584 -144 270 -184 486 -553 580 -996 l20 -90 1 95 c3 303 0 763 -6
787 -12 47 -70 136 -127 195 -182 186 -449 294 -731 296 -62 1 -115 -1 -117
-2z"/>
<path d="M0 902 c0 -143 2 -168 20 -202 75 -147 311 -242 578 -234 48 1 98 5
112 7 14 3 43 8 65 12 80 14 212 58 300 100 82 39 270 163 262 172 -2 2 -35
-12 -73 -31 -148 -73 -305 -105 -489 -101 -138 3 -149 5 -262 35 -201 54 -383
185 -475 341 l-38 64 0 -163z"/>
<path d="M0 444 c0 -219 0 -219 90 -249 219 -73 613 48 919 281 42 33 47 49 6
20 -28 -18 -147 -65 -225 -88 -94 -27 -150 -33 -290 -32 -98 0 -143 5 -205 23
-139 39 -236 108 -276 194 l-19 42 0 -191z"/>
</g>
</svg>
