<?xml version="1.0" encoding="utf-8"?>
<!-- Generator: Adobe Illustrator 17.0.1, SVG Export Plug-In . SVG Version: 6.00 Build 0)  -->
<!DOCTYPE svg PUBLIC "-//W3C//DTD SVG 1.1//EN" "http://www.w3.org/Graphics/SVG/1.1/DTD/svg11.dtd">
<svg version="1.1" id="Слой_1" xmlns="http://www.w3.org/2000/svg" xmlns:xlink="http://www.w3.org/1999/xlink" x="0px" y="0px"
	 width="16px" height="19px" viewBox="0 0 16 19" enable-background="new 0 0 16 19" xml:space="preserve">
<path fill="#9D9FA2" d="M2.669,14.93h2.665v-2.038H2.669V14.93z M10.669,14.93h2.665v-2.038h-2.665V14.93z M2.669,11.537h2.665
	V9.499H2.669V11.537z M6.667,11.537h2.666V9.499H6.667V11.537z M10.669,11.537h2.665V9.499h-2.665V11.537z M2.669,8.144h2.665V6.106
	H2.669V8.144z M6.667,8.144h2.666V6.106H6.667V8.144z M10.669,8.144h2.665V6.106h-2.665V8.144z M2.669,4.75h2.665V2.713H2.669V4.75z
	 M6.667,4.75h2.666V2.713H6.667V4.75z M10.669,4.75h2.665V2.713h-2.665V4.75z M1.333,1.356h13.331v16.287h0.003H9.333v-4.75H6.667
	v4.75H1.333V1.356z M0,19h16V0H0V19z"/>
</svg>
