<?xml version="1.0" encoding="utf-8"?>
<!-- Generator: Adobe Illustrator 17.0.0, SVG Export Plug-In . SVG Version: 6.00 Build 0)  -->
<!DOCTYPE svg PUBLIC "-//W3C//DTD SVG 1.1//EN" "http://www.w3.org/Graphics/SVG/1.1/DTD/svg11.dtd">
<svg version="1.1" id="Слой_1" xmlns="http://www.w3.org/2000/svg" xmlns:xlink="http://www.w3.org/1999/xlink" x="0px" y="0px"
	 width="21px" height="21px" viewBox="0 0 21 21" enable-background="new 0 0 21 21" xml:space="preserve">
<g>
	<g>
		<defs>
			<rect id="SVGID_1_" width="21" height="21"/>
		</defs>
		<clipPath id="SVGID_2_">
			<use xlink:href="#SVGID_1_"  overflow="visible"/>
		</clipPath>
		<path clip-path="url(#SVGID_2_)" fill="#009DD8" d="M15,13.2h-0.96l-0.36-0.36c1.2-1.32,1.92-3.12,1.92-5.04
			c0-4.32-3.48-7.8-7.8-7.8S0,3.48,0,7.8s3.48,7.8,7.8,7.8c1.92,0,3.72-0.72,5.04-1.92l0.36,0.36V15l6,6l1.8-1.8L15,13.2z M7.8,13.2
			c-3,0-5.4-2.4-5.4-5.4s2.4-5.4,5.4-5.4s5.4,2.4,5.4,5.4S10.8,13.2,7.8,13.2"/>
	</g>
</g>
</svg>
