<?xml version="1.0" encoding="utf-8"?>
<!-- Generator: Adobe Illustrator 19.1.1, SVG Export Plug-In . SVG Version: 6.00 Build 0)  -->
<svg version="1.1" id="Слой_1" xmlns="http://www.w3.org/2000/svg" xmlns:xlink="http://www.w3.org/1999/xlink" x="0px" y="0px"
	 viewBox="-587 411.9 16 12.1" style="enable-background:new -587 411.9 16 12.1;" xml:space="preserve">
<style type="text/css">
	.st0{fill:#9D9FA2;}
</style>
<polygon class="st0" points="-587,411.9 -587,415 -585.3,415 -585.2,414.1 -586.1,414.1 -586.1,412.7 -571.9,412.7 -571.9,414.1 
	-572.8,414.1 -572.7,415 -571,415 -571,411.9 "/>
<g>
	<path class="st0" d="M-583.2,412h8.4c0.6,0,1.1,0.4,1.2,0.8l1.2,9.9c0.1,0.7-0.5,1.2-1.2,1.2h-10.6c-0.8,0-1.3-0.6-1.2-1.2l1.2-9.9
		C-584.3,412.3-583.8,412-583.2,412z M-584.2,423h1.9l0.6-10.3h-1.6c-0.1,0-0.2,0.1-0.2,0.2l-1,9.9
		C-584.5,422.8-584.3,423-584.2,423z M-574.8,412.6h-4.2V423h5.2c0.1,0,0.3-0.1,0.2-0.2l-1-9.9
		C-574.5,412.7-574.6,412.6-574.8,412.6z M-575.9,419.3l-0.1-2.4h1l0.2,2.4H-575.9z M-575.8,422l-0.1-1.8h1l0.1,1.8H-575.8z"/>
</g>
</svg>
