<?xml version="1.0" encoding="utf-8"?>
<!-- Generator: Adobe Illustrator 19.1.1, SVG Export Plug-In . SVG Version: 6.00 Build 0)  -->
<svg version="1.1" id="Слой_1" xmlns="http://www.w3.org/2000/svg" xmlns:xlink="http://www.w3.org/1999/xlink" x="0px" y="0px"
	 viewBox="-583 409.9 23.6 22" style="enable-background:new -583 409.9 23.6 22;" xml:space="preserve">
<style type="text/css">
	.st0{fill:#009DD8;}
</style>
<g>
	<path class="st0" d="M-559.4,414.6v1.6h-1.6c0,0.4-0.4,0.8-0.8,0.8h-18.7c-0.5,0-0.8-0.4-0.8-0.8h-1.6v-1.6l11.8-4.7L-559.4,414.6z
		 M-559.4,430.3v1.6H-583v-1.6c0-0.4,0.4-0.8,0.8-0.8h21.9C-559.8,429.5-559.4,429.9-559.4,430.3z M-576.7,417.7v9.4h1.6v-9.4h3.1
		v9.4h1.6v-9.4h3.1v9.4h1.6v-9.4h3.1v9.4h0.7c0.5,0,0.8,0.4,0.8,0.8v0.8h-20.4V428c0-0.4,0.4-0.8,0.8-0.8h0.7v-9.4h3.3V417.7z"/>
</g>
</svg>
