<?xml version="1.0" encoding="utf-8"?>
<!-- Generator: Adobe Illustrator 17.0.0, SVG Export Plug-In . SVG Version: 6.00 Build 0)  -->
<!DOCTYPE svg PUBLIC "-//W3C//DTD SVG 1.1//EN" "http://www.w3.org/Graphics/SVG/1.1/DTD/svg11.dtd">
<svg version="1.1" id="Слой_1" xmlns="http://www.w3.org/2000/svg" xmlns:xlink="http://www.w3.org/1999/xlink" x="0px" y="0px"
	 width="24px" height="24px" viewBox="0 0 24 24" enable-background="new 0 0 24 24" xml:space="preserve">
<g>
	<defs>
		<rect id="SVGID_1_" width="24" height="24"/>
	</defs>
	<clipPath id="SVGID_2_">
		<use xlink:href="#SVGID_1_"  overflow="visible"/>
	</clipPath>
	<path clip-path="url(#SVGID_2_)" fill="#009DD8" d="M11.067,7.466L11.067,7.466c0.133-0.533,0.266-0.8,0.266-1.2V6
		c0.134-0.667,0.134-1.2,0-1.334V4.533L11.2,4.4c0,0,0,0.133-0.133,0.133C10.8,5.333,10.8,6.266,11.067,7.466 M7.067,16.666
		C6.8,16.8,6.533,16.933,6.4,17.066c-0.933,0.8-1.6,1.734-1.733,2.134C5.467,19.066,6.267,18.266,7.067,16.666 M19.333,14.666
		c-0.133-0.133-0.666-0.533-2.533-0.533h-0.267v0.133c0.934,0.4,1.867,0.667,2.534,0.667h0.266h0.134V14.8
		C19.467,14.8,19.333,14.8,19.333,14.666 M21.333,0H2.667C1.2,0,0,1.2,0,2.666v18.667C0,22.8,1.2,24,2.667,24h18.666
		C22.8,24,24,22.8,24,21.333V2.666C24,1.2,22.8,0,21.333,0 M19.867,15.733C19.6,15.866,19.2,16,18.667,16
		c-1.067,0-2.667-0.267-4-0.934c-2.267,0.267-4,0.534-5.334,1.067c-0.133,0-0.133,0-0.266,0.133c-1.6,2.8-2.934,4.134-4,4.134
		c-0.267,0-0.4,0-0.534-0.134l-0.666-0.4v-0.133c-0.134-0.267-0.134-0.4-0.134-0.667c0.134-0.666,0.934-1.866,2.534-2.8
		c0.266-0.133,0.666-0.4,1.2-0.666c0.4-0.667,0.8-1.467,1.333-2.4c0.667-1.334,1.067-2.667,1.467-3.867
		c-0.534-1.6-0.8-2.533-0.267-4.4c0.133-0.533,0.533-1.067,1.067-1.067h0.266c0.267,0,0.534,0.134,0.8,0.267
		c0.934,0.933,0.534,3.067,0,4.8v0.133c0.534,1.467,1.334,2.667,2.134,3.467c0.4,0.267,0.666,0.533,1.2,0.8
		c0.666,0,1.2-0.133,1.733-0.133c1.6,0,2.667,0.266,3.067,0.933c0.133,0.267,0.133,0.533,0.133,0.8
		C20.267,15.066,20.133,15.466,19.867,15.733 M11.2,10.533c-0.267,0.933-0.8,2-1.333,3.2c-0.267,0.533-0.534,0.933-0.8,1.467H9.2
		h0.133c1.734-0.667,3.334-1.067,4.4-1.2c-0.266-0.134-0.4-0.267-0.533-0.4C12.533,12.8,11.733,11.733,11.2,10.533"/>
</g>
</svg>
