<?xml version="1.0" encoding="utf-8"?>
<!-- Generator: Adobe Illustrator 17.0.0, SVG Export Plug-In . SVG Version: 6.00 Build 0)  -->
<!DOCTYPE svg PUBLIC "-//W3C//DTD SVG 1.1//EN" "http://www.w3.org/Graphics/SVG/1.1/DTD/svg11.dtd">
<svg version="1.1" id="Слой_1" xmlns="http://www.w3.org/2000/svg" xmlns:xlink="http://www.w3.org/1999/xlink" x="0px" y="0px"
	 width="40px" height="40px" viewBox="0 0 40 40" enable-background="new 0 0 40 40" xml:space="preserve">
<path fill="#009CD8" d="M20,0C8.954,0,0,8.954,0,20s8.954,20,20,20c11.045,0,20-8.954,20-20S31.045,0,20,0 M29.227,16.517
	c0.007,0.176,0.011,0.355,0.011,0.532c0,5.433-4.134,11.697-11.694,11.697c-2.32,0-4.481-0.681-6.3-1.848
	c0.322,0.039,0.649,0.059,0.981,0.059c1.925,0,3.698-0.658,5.104-1.761c-1.798-0.032-3.316-1.221-3.839-2.855
	c0.251,0.049,0.509,0.074,0.773,0.074c0.375,0,0.719-0.05,1.064-0.144c-1.88-0.378-3.316-2.038-3.316-4.031v-0.053
	c1,0.309,1.207,0.494,1.881,0.516c-1.103-0.738-1.819-1.995-1.819-3.423c0-0.753,0.208-1.458,0.561-2.065
	c2.028,2.486,5.058,4.122,8.474,4.295c-0.07-0.301-0.105-0.616-0.105-0.937c0-2.271,1.841-4.112,4.111-4.112
	c1.181,0,2.25,0.499,3,1.299c0.935-0.186,1.816-0.527,2.609-0.998c-0.307,0.959-0.958,1.766-1.807,2.275
	c0.832-0.1,1.624-0.32,2.361-0.648C30.726,15.213,30.03,15.937,29.227,16.517"/>
</svg>
