<?xml version="1.0" encoding="utf-8"?>
<!-- Generator: Adobe Illustrator 17.0.0, SVG Export Plug-In . SVG Version: 6.00 Build 0)  -->
<!DOCTYPE svg PUBLIC "-//W3C//DTD SVG 1.1//EN" "http://www.w3.org/Graphics/SVG/1.1/DTD/svg11.dtd">
<svg version="1.1" id="Слой_1" xmlns="http://www.w3.org/2000/svg" xmlns:xlink="http://www.w3.org/1999/xlink" x="0px" y="0px"
	 width="36px" height="36px" viewBox="0 0 36 36" enable-background="new 0 0 36 36" xml:space="preserve">
<g>
	<defs>
		<rect id="SVGID_1_" width="36" height="36"/>
	</defs>
	<clipPath id="SVGID_2_">
		<use xlink:href="#SVGID_1_"  overflow="visible"/>
	</clipPath>
	<path clip-path="url(#SVGID_2_)" fill="#FFFFFF" d="M4,0C1.52,0,0,1.924,0,4.104c0,2.124,1.568,3.848,3.998,3.848
		C6.58,7.952,8,6.124,8,4C7.952,1.82,6.48,0,4,0"/>
	<rect y="10" clip-path="url(#SVGID_2_)" fill="#FFFFFF" width="8" height="26"/>
	<path clip-path="url(#SVGID_2_)" fill="#FFFFFF" d="M27.136,10.432c-4.152,0-6.632,2.378-7.644,4H19.34l-0.356-3.446h-7.188
		C11.898,13.216,12,15.798,12,18.888V36h8V21.722c0-0.71,0.05-1.418,0.254-1.926c0.558-1.418,1.622-3.138,3.746-3.138
		c2.786,0,4,2.432,4,5.62V36h8V21.116C36,13.822,32.2,10.432,27.136,10.432"/>
	<path clip-path="url(#SVGID_2_)" fill="#5F5F5F" d="M8,36H0V10h8V36z M3.998,7.952C1.568,7.952,0,6.228,0,4.104C0,1.924,1.52,0,4,0
		s3.952,1.82,4,4C8,6.124,6.58,7.952,3.998,7.952 M36,36h-8V22.278c0-3.188-1.214-5.62-4-5.62c-2.124,0-3.188,1.72-3.746,3.138
		C20.05,20.304,20,21.012,20,21.722V36h-8V18.888c0-3.09-0.102-5.672-0.204-7.902h7.188l0.356,3.446h0.152
		c1.012-1.622,3.492-4,7.644-4c5.064,0,8.864,3.39,8.864,10.684V36z"/>
</g>
</svg>
