<?xml version="1.0" encoding="utf-8"?>
<!-- Generator: Adobe Illustrator 17.0.0, SVG Export Plug-In . SVG Version: 6.00 Build 0)  -->
<!DOCTYPE svg PUBLIC "-//W3C//DTD SVG 1.1//EN" "http://www.w3.org/Graphics/SVG/1.1/DTD/svg11.dtd">
<svg version="1.1" id="Слой_1" xmlns="http://www.w3.org/2000/svg" xmlns:xlink="http://www.w3.org/1999/xlink" x="0px" y="0px"
	 width="24px" height="24px" viewBox="0 0 24 24" enable-background="new 0 0 24 24" xml:space="preserve">
<g>
	<defs>
		<rect id="SVGID_1_" width="24" height="24"/>
	</defs>
	<clipPath id="SVGID_2_">
		<use xlink:href="#SVGID_1_"  overflow="visible"/>
	</clipPath>
	<path clip-path="url(#SVGID_2_)" fill="#9D9FA2" d="M17.143,15.086h-1.098l-0.411-0.411c1.371-1.509,2.194-3.566,2.194-5.76
		C17.828,3.977,13.851,0,8.914,0S0,3.977,0,8.915c0,4.937,3.977,8.914,8.914,8.914c2.194,0,4.251-0.823,5.76-2.194l0.411,0.411
		v1.097L21.943,24L24,21.943L17.143,15.086z M8.914,15.086c-3.429,0-6.171-2.743-6.171-6.171c0-3.429,2.742-6.172,6.171-6.172
		s6.171,2.743,6.171,6.172C15.085,12.343,12.343,15.086,8.914,15.086"/>
</g>
</svg>
