<?xml version="1.0" encoding="utf-8"?>
<!-- Generator: Adobe Illustrator 17.0.0, SVG Export Plug-In . SVG Version: 6.00 Build 0)  -->
<!DOCTYPE svg PUBLIC "-//W3C//DTD SVG 1.1//EN" "http://www.w3.org/Graphics/SVG/1.1/DTD/svg11.dtd">
<svg version="1.1" id="Слой_1" xmlns="http://www.w3.org/2000/svg" xmlns:xlink="http://www.w3.org/1999/xlink" x="0px" y="0px"
	 width="22px" height="35.44px" viewBox="0 0 22 35.44" enable-background="new 0 0 22 35.44" xml:space="preserve">
<g>
	<defs>
		<rect id="SVGID_1_" y="0" width="22" height="35.44"/>
	</defs>
	<clipPath id="SVGID_2_">
		<use xlink:href="#SVGID_1_"  overflow="visible"/>
	</clipPath>
	<path clip-path="url(#SVGID_2_)" fill="#FFFFFF" d="M20.708,5.699c-0.45-0.87-1.013-1.657-1.667-2.354C17.08,1.252,14.274,0,11,0
		C6.912,0,3.551,1.948,1.661,5.058C1.593,5.169,1.53,5.282,1.466,5.395C0.532,7.067,0,9.043,0,11.228
		c0,1.952,0.59,3.537,1.466,5.056c0.01,0.017,0.019,0.033,0.029,0.05c0.239,0.412,0.5,0.82,0.775,1.228
		c0.37,0.55,0.766,1.103,1.176,1.672c0.23,0.32,0.467,0.651,0.706,0.989c2.168,3.072,4.601,7.022,5.527,14.056
		C9.766,34.941,10.334,35.44,11,35.44c0.666,0,1.234-0.499,1.322-1.162c1.027-7.808,3.913-11.82,6.232-15.044
		c0.555-0.771,1.086-1.511,1.559-2.256c0.211-0.332,0.411-0.665,0.595-1.002C21.488,14.55,22,13.049,22,11.228
		C22,9.177,21.538,7.304,20.708,5.699 M11,14.235c-2.144,0-3.882-1.738-3.882-3.882C7.118,8.208,8.856,6.47,11,6.47
		s3.882,1.738,3.882,3.883C14.882,12.497,13.144,14.235,11,14.235"/>
</g>
</svg>
