<?xml version="1.0" encoding="utf-8"?>
<!-- Generator: Adobe Illustrator 17.0.1, SVG Export Plug-In . SVG Version: 6.00 Build 0)  -->
<!DOCTYPE svg PUBLIC "-//W3C//DTD SVG 1.1//EN" "http://www.w3.org/Graphics/SVG/1.1/DTD/svg11.dtd" [
	<!ENTITY ns_extend "http://ns.adobe.com/Extensibility/1.0/">
	<!ENTITY ns_ai "http://ns.adobe.com/AdobeIllustrator/10.0/">
	<!ENTITY ns_graphs "http://ns.adobe.com/Graphs/1.0/">
	<!ENTITY ns_vars "http://ns.adobe.com/Variables/1.0/">
	<!ENTITY ns_imrep "http://ns.adobe.com/ImageReplacement/1.0/">
	<!ENTITY ns_sfw "http://ns.adobe.com/SaveForWeb/1.0/">
	<!ENTITY ns_custom "http://ns.adobe.com/GenericCustomNamespace/1.0/">
	<!ENTITY ns_adobe_xpath "http://ns.adobe.com/XPath/1.0/">
]>
<svg version="1.1" id="Слой_1" xmlns:x="&ns_extend;" xmlns:i="&ns_ai;" xmlns:graph="&ns_graphs;"
	 xmlns="http://www.w3.org/2000/svg" xmlns:xlink="http://www.w3.org/1999/xlink" x="0px" y="0px" width="16px" height="16.003px"
	 viewBox="0 0 16 16.003" enable-background="new 0 0 16 16.003" xml:space="preserve">
<metadata>
	<sfw  xmlns="&ns_sfw;">
		<slices></slices>
		<sliceSourceBounds  width="16" height="16.003" x="0" y="0" bottomLeftOrigin="true"></sliceSourceBounds>
	</sfw>
</metadata>
<g>
	<defs>
		<rect id="SVGID_1_" width="16" height="16.003"/>
	</defs>
	<clipPath id="SVGID_2_">
		<use xlink:href="#SVGID_1_"  overflow="visible"/>
	</clipPath>
	<path clip-path="url(#SVGID_2_)" fill="#9D9FA2" d="M0,15.004v0.999h0.999C0.451,16.003,0,15.551,0,15.004"/>
	<path clip-path="url(#SVGID_2_)" fill="#9D9FA2" d="M13.004,9l-0.003-9H3.002v9H13.004z M5.502,3.002h4.999
		c0.279,0,0.5,0.224,0.5,0.499c0,0.275-0.221,0.499-0.5,0.499H5.502C5.227,4,5.003,3.776,5.003,3.501
		C5.003,3.226,5.227,3.002,5.502,3.002 M5.502,6.004h4.999c0.279,0,0.5,0.224,0.5,0.499c0,0.276-0.221,0.5-0.5,0.5H5.502
		c-0.275,0-0.499-0.224-0.499-0.5C5.003,6.228,5.227,6.004,5.502,6.004"/>
	<path clip-path="url(#SVGID_2_)" fill="#9D9FA2" d="M16,15.005v-4.001c0.003-0.551-0.445-1.002-0.996-1.002H0.998
		C0.451,10.002,0,10.453,0,11.004v4.001c0,0.547,0.451,0.998,0.998,0.998h14.003C15.552,16.003,16,15.552,16,15.005 M3.002,14.003
		c-0.554,0-0.999-0.448-0.999-0.999c0-0.55,0.449-0.998,0.999-0.998c0.551,0,0.999,0.448,0.999,0.998
		C4.001,13.555,3.553,14.003,3.002,14.003 M6.001,14.003c-0.554,0-0.999-0.448-0.999-0.999c0-0.55,0.448-0.998,0.999-0.998
		S7,12.454,7,13.004C7,13.555,6.555,14.003,6.001,14.003"/>
</g>
</svg>
