<?xml version="1.0" encoding="utf-8"?>
<!-- Generator: Adobe Illustrator 17.0.0, SVG Export Plug-In . SVG Version: 6.00 Build 0)  -->
<!DOCTYPE svg PUBLIC "-//W3C//DTD SVG 1.1//EN" "http://www.w3.org/Graphics/SVG/1.1/DTD/svg11.dtd">
<svg version="1.1" id="Слой_1" xmlns="http://www.w3.org/2000/svg" xmlns:xlink="http://www.w3.org/1999/xlink" x="0px" y="0px"
	 width="24px" height="24px" viewBox="0 0 24 24" enable-background="new 0 0 24 24" xml:space="preserve">
<path fill="#4CBAE4" d="M21.333,0H2.667C1.2,0,0,1.2,0,2.666v18.667C0,22.8,1.2,24,2.667,24h18.666C22.8,24,24,22.8,24,21.333V2.666
	C24,1.2,22.8,0,21.333,0z M10.538,19.309c-1.211,1.211-3.175,1.211-4.385,0l-1.462-1.462c-1.211-1.21-1.211-3.174,0-4.385
	l4.385-4.385c1.211-1.211,3.174-1.211,4.385,0l1.461,1.462L13.462,12L12,10.538c-0.403-0.403-1.059-0.403-1.462,0l-4.385,4.385
	c-0.404,0.404-0.404,1.059,0,1.462l1.462,1.462c0.403,0.403,1.058,0.404,1.462,0l1.565-1.565c0.729,0.426,1.552,0.609,2.368,0.555
	L10.538,19.309z M19.309,10.538l-4.385,4.385c-1.211,1.211-3.174,1.211-4.385,0l-1.462-1.462L10.538,12L12,13.462
	c0.404,0.403,1.059,0.404,1.462,0l4.385-4.385c0.403-0.403,0.403-1.059,0-1.462l-1.462-1.462c-0.403-0.403-1.059-0.403-1.462,0
	l-1.565,1.566c-0.726-0.427-1.551-0.61-2.367-0.555l2.471-2.472c1.211-1.211,3.175-1.211,4.385,0l1.462,1.462
	C20.52,7.363,20.52,9.327,19.309,10.538z"/>
</svg>
