<?xml version="1.0" encoding="utf-8"?>
<!-- Generator: Adobe Illustrator 17.0.0, SVG Export Plug-In . SVG Version: 6.00 Build 0)  -->
<!DOCTYPE svg PUBLIC "-//W3C//DTD SVG 1.1//EN" "http://www.w3.org/Graphics/SVG/1.1/DTD/svg11.dtd">
<svg version="1.1" id="Слой_1" xmlns="http://www.w3.org/2000/svg" xmlns:xlink="http://www.w3.org/1999/xlink" x="0px" y="0px"
	 width="32px" height="37.331px" viewBox="0 0 32 37.331" enable-background="new 0 0 32 37.331" xml:space="preserve">
<path fill="#9D9FA2" d="M5.338,29.334h5.332v-4.001H5.338V29.334z M21.338,29.334h5.331v-4.001h-5.331V29.334z M5.338,22.667h5.332
	v-4.001H5.338V22.667z M13.334,22.667h5.331v-4.001h-5.331V22.667z M21.338,22.667h5.331v-4.001h-5.331V22.667z M5.338,16h5.332
	v-4.001H5.338V16z M13.334,16h5.331v-4.001h-5.331V16z M21.338,16h5.331v-4.001h-5.331V16z M5.338,9.333h5.332V5.331H5.338V9.333z
	 M13.334,9.333h5.331V5.331h-5.331V9.333z M21.338,9.333h5.331V5.331h-5.331V9.333z M2.666,2.666h26.661v31.999h0.008h-10.67v-9.332
	h-5.331v9.332H2.666V2.666z M0,37.331h32V0H0V37.331z"/>
</svg>
