<?xml version="1.0" encoding="utf-8"?>
<!-- Generator: Adobe Illustrator 17.0.0, SVG Export Plug-In . SVG Version: 6.00 Build 0)  -->
<!DOCTYPE svg PUBLIC "-//W3C//DTD SVG 1.1//EN" "http://www.w3.org/Graphics/SVG/1.1/DTD/svg11.dtd">
<svg version="1.1" id="Слой_1" xmlns="http://www.w3.org/2000/svg" xmlns:xlink="http://www.w3.org/1999/xlink" x="0px" y="0px"
	 width="16.184px" height="16.184px" viewBox="0 0 16.184 16.184" enable-background="new 0 0 16.184 16.184" xml:space="preserve">
<g>
	<defs>
		<rect id="SVGID_1_" y="0" width="16.184" height="16.184"/>
	</defs>
	<clipPath id="SVGID_2_">
		<use xlink:href="#SVGID_1_"  overflow="visible"/>
	</clipPath>
	<path clip-path="url(#SVGID_2_)" fill="#FFFFFF" d="M1.798,0C0.683,0,0,0.865,0,1.845c0,0.955,0.705,1.73,1.797,1.73
		c1.161,0,1.799-0.822,1.799-1.777C3.575,0.818,2.913,0,1.798,0"/>
	<rect y="4.496" clip-path="url(#SVGID_2_)" fill="#FFFFFF" width="3.596" height="11.688"/>
	<path clip-path="url(#SVGID_2_)" fill="#FFFFFF" d="M12.199,4.69c-1.867,0-2.981,1.069-3.436,1.798H8.694l-0.16-1.549H5.303
		c0.046,1.003,0.092,2.163,0.092,3.552v7.693h3.596V9.765c0-0.319,0.022-0.637,0.114-0.865c0.251-0.638,0.729-1.411,1.684-1.411
		c1.253,0,1.798,1.093,1.798,2.526v6.169h3.597V9.493C16.184,6.214,14.475,4.69,12.199,4.69"/>
	<path clip-path="url(#SVGID_2_)" fill="#FFFFFF" d="M3.596,16.184H0V4.496h3.596V16.184z M1.797,3.575C0.705,3.575,0,2.8,0,1.845
		C0,0.865,0.683,0,1.798,0s1.777,0.818,1.798,1.798C3.596,2.753,2.958,3.575,1.797,3.575 M16.184,16.184h-3.596v-6.169
		c0-1.433-0.546-2.526-1.799-2.526c-0.954,0-1.433,0.773-1.684,1.41C9.014,9.128,8.991,9.446,8.991,9.765v6.419H5.395V8.491
		c0-1.389-0.046-2.55-0.092-3.552h3.231l0.16,1.549h0.069c0.455-0.729,1.57-1.798,3.436-1.798c2.277,0,3.985,1.524,3.985,4.803
		V16.184z"/>
</g>
</svg>
