<?xml version="1.0" encoding="utf-8"?>
<!-- Generator: Adobe Illustrator 17.0.0, SVG Export Plug-In . SVG Version: 6.00 Build 0)  -->
<!DOCTYPE svg PUBLIC "-//W3C//DTD SVG 1.1//EN" "http://www.w3.org/Graphics/SVG/1.1/DTD/svg11.dtd">
<svg version="1.1" id="Слой_1" xmlns="http://www.w3.org/2000/svg" xmlns:xlink="http://www.w3.org/1999/xlink" x="0px" y="0px"
	 width="36px" height="29.583px" viewBox="0 0 36 29.583" enable-background="new 0 0 36 29.583" xml:space="preserve">
<g>
	<defs>
		<rect id="SVGID_1_" y="0" width="36" height="29.583"/>
	</defs>
	<clipPath id="SVGID_2_">
		<use xlink:href="#SVGID_1_"  overflow="visible"/>
	</clipPath>
	<path clip-path="url(#SVGID_2_)" fill="#9D9FA2" d="M9.578,9.002c-0.893,0.763-2.535,1.289-4.428,1.289
		c-1.902,0-3.544-0.518-4.429-1.289C0.274,9.384,0,9.823,0,10.291c0,1.419,2.305,2.571,5.142,2.571c2.838,0,5.142-1.152,5.142-2.571
		C10.291,9.823,10.017,9.384,9.578,9.002 M9.578,20.582c-0.893,0.763-2.535,1.289-4.428,1.289c-1.902,0-3.544-0.518-4.429-1.289
		C0.274,20.956,0,21.396,0,21.864c0,1.419,2.305,2.571,5.142,2.571c2.838,0,5.142-1.152,5.142-2.571
		C10.291,21.396,10.017,20.956,9.578,20.582 M9.578,5.149C8.685,5.913,7.043,6.438,5.15,6.438c-1.902,0-3.544-0.518-4.429-1.289
		C0.274,5.524,0,5.963,0,6.431C0,7.85,2.305,9.002,5.142,9.002c2.838,0,5.142-1.152,5.142-2.571
		C10.291,5.963,10.017,5.524,9.578,5.149 M9.578,12.862c-0.893,0.763-2.535,1.289-4.428,1.289c-1.902,0-3.544-0.518-4.429-1.289
		C0.274,13.244,0,13.676,0,14.151c0,1.419,2.305,2.571,5.142,2.571c2.838,0,5.142-1.152,5.142-2.571
		C10.291,13.676,10.017,13.244,9.578,12.862 M9.578,16.722c-0.893,0.763-2.535,1.289-4.428,1.289c-1.902,0-3.544-0.518-4.429-1.289
		C0.274,17.104,0,17.536,0,18.004c0,1.419,2.305,2.571,5.142,2.571c2.838,0,5.142-1.152,5.142-2.571
		C10.291,17.536,10.017,17.104,9.578,16.722 M21.15,25.724c-0.893,0.763-2.535,1.289-4.429,1.289c-1.901,0-3.543-0.519-4.429-1.289
		c-0.439,0.381-0.713,0.814-0.713,1.289c0,1.419,2.305,2.571,5.142,2.571c2.838,0,5.142-1.152,5.142-2.571
		C21.864,26.538,21.59,26.105,21.15,25.724 M5.142,0C2.305,0,0,1.153,0,2.578c0,1.426,2.305,2.571,5.142,2.571
		c2.838,0,5.142-1.152,5.142-2.571C10.283,1.16,7.987,0,5.142,0 M20.574,9.002c-2.132,0-3.86,1.728-3.86,3.86
		c0,2.132,1.728,3.86,3.86,3.86s3.86-1.728,3.86-3.86C24.434,10.73,22.706,9.002,20.574,9.002 M33.437,2.578H12.214
		c-0.353,0-0.641,0.288-0.641,0.641v17.622c1.174-0.936,3.039-1.548,5.142-1.548c3.55,0,6.431,1.728,6.431,3.86h0.641h9.643
		c1.418,0,2.57-1.152,2.57-2.571V5.149C36.007,3.723,34.854,2.578,33.437,2.578 M20.574,18.004c-2.837,0-5.142-2.305-5.142-5.142
		c0-2.837,2.305-5.142,5.142-5.142s5.142,2.305,5.142,5.142C25.716,15.699,23.42,18.004,20.574,18.004 M30.865,19.293
		c-0.713,0-1.289-0.576-1.289-1.289c0-0.713,0.576-1.289,1.289-1.289c0.713,0,1.289,0.576,1.289,1.289
		C32.154,18.717,31.572,19.293,30.865,19.293 M30.865,9.002c-0.713,0-1.289-0.576-1.289-1.289c0-0.713,0.576-1.289,1.289-1.289
		c0.713,0,1.289,0.576,1.289,1.289C32.147,8.426,31.572,9.002,30.865,9.002 M16.715,20.582c-2.837,0-5.142,1.152-5.142,2.571
		s2.305,2.571,5.142,2.571s5.142-1.152,5.142-2.571C21.864,21.727,19.559,20.582,16.715,20.582"/>
</g>
</svg>
