<?xml version="1.0" encoding="utf-8"?>
<!-- Generator: Adobe Illustrator 17.0.0, SVG Export Plug-In . SVG Version: 6.00 Build 0)  -->
<!DOCTYPE svg PUBLIC "-//W3C//DTD SVG 1.1//EN" "http://www.w3.org/Graphics/SVG/1.1/DTD/svg11.dtd">
<svg version="1.1" id="Слой_1" xmlns="http://www.w3.org/2000/svg" xmlns:xlink="http://www.w3.org/1999/xlink" x="0px" y="0px"
	 width="36px" height="36px" viewBox="0 0 36 36" enable-background="new 0 0 36 36" xml:space="preserve">
<g>
	<defs>
		<rect id="SVGID_1_" width="36" height="36"/>
	</defs>
	<clipPath id="SVGID_2_">
		<use xlink:href="#SVGID_1_"  overflow="visible"/>
	</clipPath>
	<path clip-path="url(#SVGID_2_)" fill="#009DD8" d="M34,25c-2.4,0-4.8-0.4-7.2-1.2c-0.6-0.2-1.4,0-2,0.4l-4.4,4.4
		C14.8,25.8,10.2,21,7.2,15.4l4.4-4.4c0.6-0.6,0.8-1.4,0.4-2c-0.6-2.2-1-4.6-1-7c0-1.2-0.8-2-2-2H2C0.8,0,0,0.8,0,2
		c0,18.8,15.2,34,34,34c1.2,0,2-0.8,2-2v-7C36,25.8,35.2,25,34,25"/>
	<polygon clip-path="url(#SVGID_2_)" fill="#009DD8" points="28,2 26.6,3.4 32.2,9 20,9 20,11 32.2,11 26.6,16.6 28,18 36,10 	"/>
</g>
</svg>
