<?xml version="1.0" encoding="utf-8"?>
<!-- Generator: Adobe Illustrator 17.0.0, SVG Export Plug-In . SVG Version: 6.00 Build 0)  -->
<!DOCTYPE svg PUBLIC "-//W3C//DTD SVG 1.1//EN" "http://www.w3.org/Graphics/SVG/1.1/DTD/svg11.dtd">
<svg version="1.1" id="Слой_1" xmlns="http://www.w3.org/2000/svg" xmlns:xlink="http://www.w3.org/1999/xlink" x="0px" y="0px"
	 width="40px" height="40px" viewBox="0 0 40 40" enable-background="new 0 0 40 40" xml:space="preserve">
<path fill="#9D9FA2" d="M20,0C8.954,0,0,8.954,0,20s8.954,20,20,20s20-8.954,20-20S31.046,0,20,0 M15.504,27.292h-3.596V15.604
	h3.596V27.292z M13.705,14.683c-1.092,0-1.797-0.775-1.797-1.73c0-0.98,0.683-1.845,1.798-1.845c1.115,0,1.777,0.818,1.798,1.798
	C15.504,13.861,14.866,14.683,13.705,14.683 M28.092,27.292h-3.596v-6.169c0-1.433-0.546-2.526-1.799-2.526
	c-0.954,0-1.433,0.773-1.684,1.41c-0.091,0.229-0.114,0.547-0.114,0.866v6.419h-3.596v-7.693c0-1.389-0.046-2.55-0.092-3.552h3.231
	l0.16,1.549h0.069c0.455-0.729,1.57-1.798,3.436-1.798c2.277,0,3.985,1.524,3.985,4.803V27.292z"/>
</svg>
