<?xml version="1.0" encoding="utf-8"?>
<!-- Generator: Adobe Illustrator 17.0.0, SVG Export Plug-In . SVG Version: 6.00 Build 0)  -->
<!DOCTYPE svg PUBLIC "-//W3C//DTD SVG 1.1//EN" "http://www.w3.org/Graphics/SVG/1.1/DTD/svg11.dtd">
<svg version="1.1" id="Слой_1" xmlns="http://www.w3.org/2000/svg" xmlns:xlink="http://www.w3.org/1999/xlink" x="0px" y="0px"
	 width="16px" height="21px" viewBox="0 0 16 21" enable-background="new 0 0 16 21" xml:space="preserve">
<g>
	<defs>
		<rect id="SVGID_1_" width="16" height="21"/>
	</defs>
	<clipPath id="SVGID_2_">
		<use xlink:href="#SVGID_1_"  overflow="visible"/>
	</clipPath>
	<path clip-path="url(#SVGID_2_)" fill="#009DD8" d="M14,7h-1V5c0-2.8-2.2-5-5-5S3,2.2,3,5v2H2C0.9,7,0,7.9,0,9v10c0,1.1,0.9,2,2,2
		h12c1.1,0,2-0.9,2-2V9C16,7.9,15.1,7,14,7 M8,1.9c1.7,0,3.1,1.4,3.1,3.1v2H5V5H4.9C4.9,3.3,6.3,1.9,8,1.9 M14,19H2V9h12V19z M8,16
		c1.1,0,2-0.9,2-2s-0.9-2-2-2s-2,0.9-2,2S6.9,16,8,16"/>
</g>
</svg>
