<?xml version="1.0" encoding="utf-8"?>
<!-- Generator: Adobe Illustrator 17.0.0, SVG Export Plug-In . SVG Version: 6.00 Build 0)  -->
<!DOCTYPE svg PUBLIC "-//W3C//DTD SVG 1.1//EN" "http://www.w3.org/Graphics/SVG/1.1/DTD/svg11.dtd">
<svg version="1.1" id="Слой_1" xmlns="http://www.w3.org/2000/svg" xmlns:xlink="http://www.w3.org/1999/xlink" x="0px" y="0px"
	 width="24px" height="24px" viewBox="0 0 24 24" enable-background="new 0 0 24 24" xml:space="preserve">
<g>
	<defs>
		<rect id="SVGID_1_" width="24" height="24"/>
	</defs>
	<clipPath id="SVGID_2_">
		<use xlink:href="#SVGID_1_"  overflow="visible"/>
	</clipPath>
	<path clip-path="url(#SVGID_2_)" fill="#FFFFFF" d="M22.667,16.667c-1.6,0-3.2-0.267-4.8-0.8c-0.4-0.133-0.933,0-1.333,0.267
		L13.6,19.067C9.867,17.2,6.8,14,4.8,10.267l2.934-2.933C8.134,6.934,8.267,6.4,8,6C7.6,4.534,7.334,2.934,7.334,1.334
		C7.334,0.534,6.8,0,6,0H1.334C0.534,0,0,0.534,0,1.334C0,13.867,10.134,24,22.667,24c0.8,0,1.333-0.533,1.333-1.333V18
		C24,17.2,23.467,16.667,22.667,16.667"/>
	<polygon clip-path="url(#SVGID_2_)" fill="#FFFFFF" points="18.667,1.333 17.734,2.266 21.467,6 13.334,6 13.334,7.333 
		21.467,7.333 17.734,11.066 18.667,12 24,6.666 	"/>
</g>
</svg>
