<svg xmlns="http://www.w3.org/2000/svg" viewBox="0 0 148.66 111.79"><defs><style>.cls-1{fill:#6d6e71;}.cls-2{fill:#00aeef;}</style></defs><title>Asset 1</title><g id="Layer_2" data-name="Layer 2"><g id="Layer_1-2" data-name="Layer 1"><path class="cls-1" d="M55.56,63.77c-5.43,0-10.42,3.44-13.09,5.91a11.78,11.78,0,0,0-2.4,2.93,9.72,9.72,0,0,1,1.3-3.93V64.3h-10v46.07h10V74.71c1.87-2.37,5.82-5.13,10-5.13,8.68,0,9,6,9,11.43v29.36h9.8V77.47c0-8.77-7.2-13.7-14.59-13.7"/><path class="cls-1" d="M94.29,108c-7.5,0-8.64-4.64-8.64-4.64V73.13c2.67-3.25,5.19-4,8.34-4,5.62,0,13.31,4.27,13.31,18.36,0,15.57-6.77,20.5-11.59,20.5Zm4.87-44.18a17.56,17.56,0,0,0-12.33,4.61,12.2,12.2,0,0,0-2.46,3,19,19,0,0,1,1.28-4.13V43.31H75.44l0,62.76c1.18.59,11,5.72,18.86,5.72,15.77,0,23.66-12.71,23.66-24.73,0-10.25-6.51-23.29-18.82-23.29"/><path class="cls-1" d="M148.66,47.41a5.71,5.71,0,0,0-1.22-1.24,19.53,19.53,0,0,0-1.85-1.42A15.45,15.45,0,0,0,137,42.48c-9.56,0-14.92,6.71-14.92,14.39v53.5h9.79V70.13h8.25v-5h-8a12.31,12.31,0,0,0-3.86.71,9.3,9.3,0,0,1,3.59-2.27v-7.7c0-2.76.3-8.15,6.8-8.15a8.57,8.57,0,0,1,6.9,3.78v0Z"/><path class="cls-2" d="M0,45.22C1.44,53.75,17.84,56.86,30.77,49,16.22,61.15,2.67,60.83,0,57Z"/><path class="cls-1" d="M28.18,17.85c13.87-8.77,33.36-4.7,39.24,8.67V17C65.3,8,44,3.43,28.18,17.85m8.47-7.48C49.58,2.49,66,5.59,67.42,14.13V2.37c-2.67-3.85-16.21-4.17-30.77,8M20.12,26.12c18-14.77,41.34-3.67,47.3,30.62V31c-2.86-11.51-28.23-25.23-47.3-4.88"/><path class="cls-2" d="M0,32.83C5.88,46.2,25.38,50.26,39.23,41.5,23.39,55.91,2.13,51.3,0,42.32Z"/><path class="cls-2" d="M0,2.6C6,36.89,29.28,48,47.31,33.22,28.24,53.58,2.86,39.85,0,28.36Z"/></g></g></svg>